<?xml version="1.0" encoding="UTF-8"?>
<svg width="10px" height="10px" viewBox="0 0 10 10" version="1.1" xmlns="http://www.w3.org/2000/svg" xmlns:xlink="http://www.w3.org/1999/xlink">
    <!-- Generator: sketchtool 56.3 (101010) - https://sketch.com -->
    <title>7514C27A-7DB2-40FA-B0BC-9966F547C4F3</title>
    <desc>Created with sketchtool.</desc>
    <g id="FINAL-Phase-2&amp;3" stroke="none" stroke-width="1" fill="none" fill-rule="evenodd">
        <g id="Account-Delete-Account-Popup" transform="translate(-970.000000, -132.000000)" fill="#000000">
            <g id="login-popup">
                <path d="M975,135.811535 L978.565396,132.246139 C978.893581,131.917954 979.425675,131.917954 979.753861,132.246139 C980.082046,132.574325 980.082046,133.106419 979.753861,133.434604 L976.188465,137 L979.753861,140.565396 C980.082046,140.893581 980.082046,141.425675 979.753861,141.753861 C979.425675,142.082046 978.893581,142.082046 978.565396,141.753861 L975,138.188465 L971.434604,141.753861 C971.106419,142.082046 970.574325,142.082046 970.246139,141.753861 C969.917954,141.425675 969.917954,140.893581 970.246139,140.565396 L973.811535,137 L970.246139,133.434604 C969.917954,133.106419 969.917954,132.574325 970.246139,132.246139 C970.574325,131.917954 971.106419,131.917954 971.434604,132.246139 L975,135.811535 Z" id="close-icon"></path>
            </g>
        </g>
    </g>
</svg>